<svg width="20" height="20" viewBox="0 0 20 20" fill="none" xmlns="http://www.w3.org/2000/svg">
<path d="M10.093 18.5038C14.7382 18.5038 18.5038 14.7382 18.5038 10.093C18.5038 5.4478 14.7382 1.68213 10.093 1.68213C5.4478 1.68213 1.68213 5.4478 1.68213 10.093C1.68213 14.7382 5.4478 18.5038 10.093 18.5038Z" fill="#CB0F22"/>
<path d="M10.093 13.4573V10.093M10.093 6.72864H10.1014M18.5038 10.093C18.5038 14.7382 14.7382 18.5038 10.093 18.5038C5.4478 18.5038 1.68213 14.7382 1.68213 10.093C1.68213 5.4478 5.4478 1.68213 10.093 1.68213C14.7382 1.68213 18.5038 5.4478 18.5038 10.093Z" stroke="white" stroke-width="2" stroke-linecap="round" stroke-linejoin="round"/>
</svg>
